<svg width="16" height="19" viewBox="0 0 16 19" fill="none" xmlns="http://www.w3.org/2000/svg">
<path d="M1.71583 9.63779C1.48661 9.63779 1.26678 9.72885 1.1047 9.89093C0.942619 10.053 0.851563 10.2728 0.851562 10.5021V17.4162C0.851562 17.6454 0.942619 17.8652 1.1047 18.0273C1.26678 18.1894 1.48661 18.2805 1.71583 18.2805C1.94505 18.2805 2.16488 18.1894 2.32696 18.0273C2.48904 17.8652 2.5801 17.6454 2.5801 17.4162V10.5021C2.5801 10.2728 2.48904 10.053 2.32696 9.89093C2.16488 9.72885 1.94505 9.63779 1.71583 9.63779ZM6.03717 0.995117C5.80795 0.995117 5.58812 1.08617 5.42604 1.24826C5.26396 1.41034 5.1729 1.63017 5.1729 1.85938V17.4162C5.1729 17.6454 5.26396 17.8652 5.42604 18.0273C5.58812 18.1894 5.80795 18.2805 6.03717 18.2805C6.26638 18.2805 6.48621 18.1894 6.6483 18.0273C6.81038 17.8652 6.90143 17.6454 6.90143 17.4162V1.85938C6.90143 1.63017 6.81038 1.41034 6.6483 1.24826C6.48621 1.08617 6.26638 0.995117 6.03717 0.995117ZM14.6798 13.0949C14.4506 13.0949 14.2308 13.1859 14.0687 13.348C13.9066 13.5101 13.8156 13.7299 13.8156 13.9591V17.4162C13.8156 17.6454 13.9066 17.8652 14.0687 18.0273C14.2308 18.1894 14.4506 18.2805 14.6798 18.2805C14.9091 18.2805 15.1289 18.1894 15.291 18.0273C15.4531 17.8652 15.5441 17.6454 15.5441 17.4162V13.9591C15.5441 13.7299 15.4531 13.5101 15.291 13.348C15.1289 13.1859 14.9091 13.0949 14.6798 13.0949ZM10.3585 6.18072C10.1293 6.18072 9.90946 6.27178 9.74737 6.43386C9.58529 6.59594 9.49424 6.81577 9.49424 7.04499V17.4162C9.49424 17.6454 9.58529 17.8652 9.74737 18.0273C9.90946 18.1894 10.1293 18.2805 10.3585 18.2805C10.5877 18.2805 10.8076 18.1894 10.9696 18.0273C11.1317 17.8652 11.2228 17.6454 11.2228 17.4162V7.04499C11.2228 6.81577 11.1317 6.59594 10.9696 6.43386C10.8076 6.27178 10.5877 6.18072 10.3585 6.18072Z" fill="#F5F5F5"/>
</svg>
