<svg width="19" height="15" viewBox="0 0 19 15" fill="none" xmlns="http://www.w3.org/2000/svg">
<path d="M17.8632 0.580078H1.18446C0.829634 0.580078 0.542969 0.866744 0.542969 1.22157V14.0514C0.542969 14.4062 0.829634 14.6928 1.18446 14.6928H17.8632C18.218 14.6928 18.5047 14.4062 18.5047 14.0514V1.22157C18.5047 0.866744 18.218 0.580078 17.8632 0.580078ZM17.0613 4.74976H12.8115V2.02343H17.0613V4.74976ZM17.0613 9.24019H12.8115V6.03274H17.0613V9.24019ZM7.51917 6.03274H11.5285V9.24019H7.51917V6.03274ZM11.5285 4.74976H7.51917V2.02343H11.5285V4.74976ZM1.98632 6.03274H6.23619V9.24019H1.98632V6.03274ZM1.98632 2.02343H6.23619V4.74976H1.98632V2.02343ZM1.98632 10.5232H6.23619V13.2495H1.98632V10.5232ZM7.51917 10.5232H11.5285V13.2495H7.51917V10.5232ZM17.0613 13.2495H12.8115V10.5232H17.0613V13.2495Z" fill="#F5F5F5"/>
</svg>
