<svg width="16" height="16" viewBox="0 0 16 16" fill="none" xmlns="http://www.w3.org/2000/svg">
<path d="M14.9731 7.40104H3.80307L8.68307 2.52104C9.07307 2.13104 9.07307 1.49104 8.68307 1.10104C8.59056 1.00833 8.48067 0.934786 8.35969 0.884605C8.23872 0.834423 8.10904 0.808594 7.97807 0.808594C7.8471 0.808594 7.71742 0.834423 7.59645 0.884605C7.47547 0.934786 7.36558 1.00833 7.27307 1.10104L0.683069 7.69104C0.590366 7.78355 0.516818 7.89344 0.466637 8.01441C0.416455 8.13539 0.390625 8.26507 0.390625 8.39604C0.390625 8.52701 0.416455 8.65669 0.466637 8.77766C0.516818 8.89863 0.590366 9.00852 0.683069 9.10104L7.27307 15.691C7.36565 15.7836 7.47556 15.8571 7.59653 15.9072C7.71749 15.9573 7.84714 15.9831 7.97807 15.9831C8.109 15.9831 8.23865 15.9573 8.35961 15.9072C8.48058 15.8571 8.59049 15.7836 8.68307 15.691C8.77565 15.5985 8.84909 15.4885 8.8992 15.3676C8.9493 15.2466 8.97509 15.117 8.97509 14.986C8.97509 14.8551 8.9493 14.7255 8.8992 14.6045C8.84909 14.4835 8.77565 14.3736 8.68307 14.281L3.80307 9.40104H14.9731C15.5231 9.40104 15.9731 8.95104 15.9731 8.40104C15.9731 7.85104 15.5231 7.40104 14.9731 7.40104Z" fill="white"/>
</svg>
