<svg width="19" height="19" viewBox="0 0 19 19" fill="none" xmlns="http://www.w3.org/2000/svg">
<path opacity="0.5" d="M2.28526 5.95442H2.54309C3.53573 5.95442 4.34789 6.76658 4.34789 7.75922V16.7832C4.34789 17.7758 3.53573 18.588 2.54309 18.588H2.28526C1.29263 18.588 0.480469 17.7758 0.480469 16.7832V7.75922C0.480469 6.76658 1.29263 5.95442 2.28526 5.95442ZM9.50445 0.540039C10.4971 0.540039 11.3092 1.3522 11.3092 2.34483V16.7832C11.3092 17.7758 10.4971 18.588 9.50445 18.588C8.51181 18.588 7.69965 17.7758 7.69965 16.7832V2.34483C7.69965 1.3522 8.51181 0.540039 9.50445 0.540039ZM16.7236 10.8532C17.7163 10.8532 18.5284 11.6653 18.5284 12.658V16.7832C18.5284 17.7758 17.7163 18.588 16.7236 18.588C15.731 18.588 14.9188 17.7758 14.9188 16.7832V12.658C14.9188 11.6653 15.731 10.8532 16.7236 10.8532Z" fill="#669D69"/>
</svg>
