<svg width="19" height="15" viewBox="0 0 19 15" fill="none" xmlns="http://www.w3.org/2000/svg">
<path d="M18.0038 0.580078H1.32508C0.970259 0.580078 0.683594 0.866744 0.683594 1.22157V14.0514C0.683594 14.4062 0.970259 14.6928 1.32508 14.6928H18.0038C18.3586 14.6928 18.6453 14.4062 18.6453 14.0514V1.22157C18.6453 0.866744 18.3586 0.580078 18.0038 0.580078ZM17.2019 4.74976H12.9521V2.02343H17.2019V4.74976ZM17.2019 9.24019H12.9521V6.03274H17.2019V9.24019ZM7.65979 6.03274H11.6691V9.24019H7.65979V6.03274ZM11.6691 4.74976H7.65979V2.02343H11.6691V4.74976ZM2.12695 6.03274H6.37681V9.24019H2.12695V6.03274ZM2.12695 2.02343H6.37681V4.74976H2.12695V2.02343ZM2.12695 10.5232H6.37681V13.2495H2.12695V10.5232ZM7.65979 10.5232H11.6691V13.2495H7.65979V10.5232ZM17.2019 13.2495H12.9521V10.5232H17.2019V13.2495Z" fill="#669D69"/>
</svg>
