<svg width="13" height="13" viewBox="0 0 13 13" fill="none" xmlns="http://www.w3.org/2000/svg">
<path d="M0.332031 10.167V12.7241H2.88916L10.431 5.1823L7.87385 2.62517L0.332031 10.167ZM12.4085 3.20479C12.4717 3.1417 12.5219 3.06677 12.5561 2.98428C12.5903 2.90179 12.6079 2.81336 12.6079 2.72405C12.6079 2.63474 12.5903 2.54631 12.5561 2.46382C12.5219 2.38133 12.4717 2.30639 12.4085 2.24331L10.8128 0.64766C10.7498 0.584445 10.6748 0.534293 10.5923 0.500074C10.5098 0.465856 10.4214 0.448242 10.3321 0.448242C10.2428 0.448242 10.1544 0.465856 10.0719 0.500074C9.98938 0.534293 9.91445 0.584445 9.85137 0.64766L8.60349 1.89554L11.1606 4.45267L12.4085 3.20479Z" fill="#669D69"/>
</svg>
