<svg width="15" height="17" viewBox="0 0 15 17" fill="none" xmlns="http://www.w3.org/2000/svg">
<path opacity="0.5" d="M9.45673 8.41189V15.6906C9.49368 15.9677 9.40131 16.2633 9.18886 16.4573C9.1034 16.5429 9.0019 16.6108 8.89016 16.6572C8.77841 16.7036 8.65863 16.7274 8.53765 16.7274C8.41668 16.7274 8.29689 16.7036 8.18515 16.6572C8.0734 16.6108 7.9719 16.5429 7.88645 16.4573L6.02982 14.6007C5.92907 14.5022 5.85247 14.3817 5.806 14.2487C5.75954 14.1157 5.74446 13.9738 5.76195 13.834V8.41189H5.73424L0.413749 1.59502C0.263749 1.40246 0.196065 1.15835 0.225489 0.916039C0.254912 0.673727 0.37905 0.452913 0.570778 0.301846C0.74628 0.172528 0.940256 0.0986328 1.14347 0.0986328H14.0752C14.2784 0.0986328 14.4724 0.172528 14.6479 0.301846C14.8396 0.452913 14.9638 0.673727 14.9932 0.916039C15.0226 1.15835 14.9549 1.40246 14.8049 1.59502L9.48444 8.41189H9.45673Z" fill="#669D69"/>
</svg>
