<svg width="19" height="18" viewBox="0 0 19 18" fill="none" xmlns="http://www.w3.org/2000/svg">
<path opacity="0.5" d="M8.47597 1.30824V17.0636C8.47597 17.6353 7.949 18.064 7.39524 17.9389C3.4028 17.0458 0.4375 13.4642 0.4375 9.18594C0.4375 4.90769 3.4028 1.3261 7.39524 0.432941C7.52569 0.404582 7.66084 0.405885 7.79072 0.436753C7.92059 0.467622 8.04188 0.527268 8.14562 0.611288C8.24936 0.695307 8.3329 0.801554 8.39008 0.922185C8.44725 1.04281 8.47661 1.17475 8.47597 1.30824ZM10.2891 1.30824V7.39068C10.2891 7.88192 10.691 8.28384 11.1822 8.28384H17.2468C17.8184 8.28384 18.2472 7.75688 18.1221 7.19418C17.3629 3.83589 14.7281 1.19213 11.3787 0.432941C10.8161 0.307899 10.2891 0.736617 10.2891 1.30824ZM10.2891 10.9812V17.0636C10.2891 17.6353 10.8161 18.064 11.3787 17.9389C14.737 17.1797 17.3719 14.5271 18.1311 11.1688C18.2561 10.615 17.8185 10.0791 17.2558 10.0791H11.1912C10.691 10.088 10.2891 10.49 10.2891 10.9812Z" fill="#669D69"/>
</svg>
