<svg width="6" height="21" viewBox="0 0 6 21" fill="none" xmlns="http://www.w3.org/2000/svg">
<path d="M3.30903 5.80165C4.63485 5.80165 5.71961 4.71688 5.71961 3.39106C5.71961 2.06523 4.63485 0.980469 3.30903 0.980469C1.9832 0.980469 0.898438 2.06523 0.898438 3.39106C0.898438 4.71688 1.9832 5.80165 3.30903 5.80165ZM3.30903 8.21223C1.9832 8.21223 0.898438 9.297 0.898438 10.6228C0.898438 11.9486 1.9832 13.0334 3.30903 13.0334C4.63485 13.0334 5.71961 11.9486 5.71961 10.6228C5.71961 9.297 4.63485 8.21223 3.30903 8.21223ZM3.30903 15.444C1.9832 15.444 0.898438 16.5288 0.898438 17.8546C0.898438 19.1804 1.9832 20.2652 3.30903 20.2652C4.63485 20.2652 5.71961 19.1804 5.71961 17.8546C5.71961 16.5288 4.63485 15.444 3.30903 15.444Z" fill="#F5F5F5"/>
</svg>
